# xmcd
#
# Track frame offsets:
#	150
#	28875
#	63088
#	85917
#	106340
#	121689
#	147465
#	168198
#	224038
#	243877
#
# Disc length: 3497 seconds
#
# Revision: 1
# Processed by: cddbd v1.5PL3 Copyright (c) Steve Scherf et al.
# Submitted via: audiograbber 1.82.01
#
DISCID=870da70a
DTITLE=Fleetwood Mac - 1970-01-30 - The Warehouse, New Orleans
DYEAR=1900
DGENRE=
TTITLE0=Fleetwood Mac - Introduction Before the Beginning
TTITLE1=Fleetwood Mac - It Takes Time
TTITLE2=Fleetwood Mac - Like It This Way
TTITLE3=Fleetwood Mac - Only You
TTITLE4=Fleetwood Mac - Madison Blues
TTITLE5=Fleetwood Mac - I Can't Stop Lovin'
TTITLE6=Fleetwood Mac - Albatross
TTITLE7=Fleetwood Mac - The Green Manalishi (With the Two-Pronged Crown)
TTITLE8=Fleetwood Mac - World in Harmony
TTITLE9=Fleetwood Mac - Stranger Blues
EXTD=
EXTT0=
EXTT1=
EXTT2=
EXTT3=
EXTT4=
EXTT5=
EXTT6=
EXTT7=
EXTT8=
EXTT9=
PLAYORDER=
